<?xml version="1.0" encoding="UTF-8"?>
<svg xmlns="http://www.w3.org/2000/svg" xmlns:xlink="http://www.w3.org/1999/xlink" width="100pt" height="100pt" viewBox="0 0 100 100" version="1.1">
<g id="surface1">
<path style=" stroke:none;fill-rule:nonzero;fill:rgb(88.235294%,90.980392%,92.941176%);fill-opacity:1;" d="M 100 44.445312 L 100 88.890625 C 100 88.890625 100 100 88.890625 100 L 11.109375 100 C 0 100 0 88.890625 0 88.890625 L 0 83.332031 C 0 83.332031 47.222656 55.554688 100 44.445312 "/>
<path style=" stroke:none;fill-rule:nonzero;fill:rgb(91.764706%,34.901961%,43.137255%);fill-opacity:1;" d="M 91.15625 58.277344 C 92.441406 61.066406 91.21875 64.363281 88.433594 65.648438 L 22.835938 95.863281 C 20.046875 97.144531 16.75 95.929688 15.46875 93.144531 L 13.144531 88.09375 C 11.859375 85.308594 13.078125 82.007812 15.863281 80.722656 L 81.460938 50.507812 C 84.25 49.226562 87.546875 50.449219 88.835938 53.230469 Z M 91.15625 58.277344 "/>
<path style=" stroke:none;fill-rule:nonzero;fill:rgb(40.392157%,45.882353%,49.803922%);fill-opacity:1;" d="M 70.574219 72.222656 C 69.738281 72.222656 68.890625 72.035156 68.09375 71.636719 L 62.535156 68.859375 C 61.320312 68.246094 60.371094 67.214844 59.863281 65.953125 L 55.191406 54.273438 L 43.515625 49.601562 C 40.664062 48.464844 39.277344 45.230469 40.421875 42.378906 C 41.554688 39.53125 44.796875 38.144531 47.640625 39.285156 L 61.53125 44.839844 C 62.941406 45.40625 64.058594 46.523438 64.625 47.9375 L 69.394531 59.863281 L 73.0625 61.695312 C 75.808594 63.070312 76.921875 66.40625 75.546875 69.152344 C 74.574219 71.101562 72.613281 72.222656 70.574219 72.222656 "/>
<path style=" stroke:none;fill-rule:nonzero;fill:rgb(40.392157%,45.882353%,49.803922%);fill-opacity:1;" d="M 45.582031 83.332031 C 43.546875 83.335938 41.582031 82.210938 40.609375 80.265625 L 37.832031 74.707031 C 37.277344 73.601562 37.109375 72.34375 37.351562 71.128906 L 39.707031 59.351562 L 32.480469 47.304688 C 30.902344 44.671875 31.753906 41.261719 34.386719 39.679688 C 37.015625 38.101562 40.429688 38.957031 42.007812 41.585938 L 50.339844 55.476562 C 51.054688 56.660156 51.296875 58.066406 51.027344 59.425781 L 48.621094 71.445312 L 50.546875 75.292969 C 51.917969 78.039062 50.804688 81.375 48.0625 82.746094 C 47.265625 83.148438 46.417969 83.332031 45.582031 83.332031 "/>
<path style=" stroke:none;fill-rule:nonzero;fill:rgb(73.333333%,86.666667%,96.078431%);fill-opacity:1;" d="M 67.800781 44.445312 C 57 44.445312 47.714844 32.476562 46.6875 31.109375 C 44.847656 28.65625 45.347656 25.175781 47.800781 23.332031 C 50.253906 21.496094 53.730469 21.984375 55.574219 24.4375 C 58.367188 28.128906 64.007812 33.332031 67.800781 33.332031 C 70.867188 33.332031 73.355469 35.820312 73.355469 38.890625 C 73.355469 41.957031 70.867188 44.445312 67.800781 44.445312 "/>
<path style=" stroke:none;fill-rule:nonzero;fill:rgb(73.333333%,86.666667%,96.078431%);fill-opacity:1;" d="M 20.578125 55.558594 C 18.25 55.558594 16.082031 54.085938 15.308594 51.757812 C 12.367188 42.9375 14.078125 34.753906 20.121094 28.710938 C 24.394531 24.433594 29.375 22.691406 29.933594 22.503906 C 32.839844 21.539062 35.992188 23.109375 36.960938 26.023438 C 37.925781 28.921875 36.367188 32.054688 33.476562 33.039062 C 30.800781 33.976562 22.375 37.832031 25.847656 48.246094 C 26.820312 51.152344 25.246094 54.300781 22.335938 55.269531 C 21.75 55.464844 21.160156 55.558594 20.578125 55.558594 "/>
<path style=" stroke:none;fill-rule:nonzero;fill:rgb(40.392157%,45.882353%,49.803922%);fill-opacity:1;" d="M 51.132812 43.054688 C 51.132812 48.425781 46.78125 52.777344 41.410156 52.777344 C 36.042969 52.777344 31.6875 48.425781 31.6875 43.054688 L 31.6875 31.945312 C 31.6875 26.574219 36.042969 22.222656 41.410156 22.222656 C 46.78125 22.222656 51.132812 26.574219 51.132812 31.945312 Z M 51.132812 43.054688 "/>
<path style=" stroke:none;fill-rule:nonzero;fill:rgb(73.333333%,86.666667%,96.078431%);fill-opacity:1;" d="M 56.6875 27.777344 C 56.6875 30.84375 54.199219 33.332031 51.132812 33.332031 L 31.6875 33.332031 C 28.621094 33.332031 26.132812 30.84375 26.132812 27.777344 C 26.132812 24.707031 28.621094 22.222656 31.6875 22.222656 L 51.132812 22.222656 C 54.199219 22.222656 56.6875 24.707031 56.6875 27.777344 "/>
<path style=" stroke:none;fill-rule:nonzero;fill:rgb(73.333333%,86.666667%,96.078431%);fill-opacity:1;" d="M 30.554688 51.390625 C 30.273438 51.390625 30 51.304688 29.765625 51.140625 C 29.390625 50.878906 29.167969 50.457031 29.167969 50 L 29.167969 30.554688 C 29.167969 23.609375 36.6875 23.609375 41.667969 23.609375 C 46.644531 23.609375 54.167969 23.609375 54.167969 30.554688 L 54.167969 41.667969 C 54.167969 42.246094 53.808594 42.765625 53.265625 42.964844 L 31.042969 51.300781 C 30.886719 51.359375 30.71875 51.390625 30.554688 51.390625 "/>
<path style=" stroke:none;fill-rule:nonzero;fill:rgb(10.980392%,38.823529%,60%);fill-opacity:1;" d="M 87.429688 10.671875 L 84.652344 2.339844 C 84.460938 1.773438 83.929688 1.386719 83.332031 1.386719 C 82.972656 1.386719 74.40625 1.484375 63.058594 10 C 52.3125 18.058594 49.847656 18.058594 44.441406 18.058594 L 36.109375 18.054688 C 35.742188 18.054688 35.390625 18.203125 35.128906 18.464844 C 33.664062 19.925781 33.28125 21.984375 34.097656 23.96875 C 35.140625 26.480469 38.40625 29.167969 44.441406 29.167969 C 48.441406 29.167969 54.257812 25.953125 60.992188 22.242188 C 69.265625 17.675781 78.644531 12.5 86.109375 12.5 C 86.558594 12.5 86.976562 12.285156 87.238281 11.925781 C 87.5 11.5625 87.570312 11.09375 87.429688 10.671875 "/>
<path style=" stroke:none;fill-rule:nonzero;fill:rgb(100%,86.27451%,36.470588%);fill-opacity:1;" d="M 51.132812 11.109375 C 51.132812 17.246094 46.160156 22.222656 40.023438 22.222656 C 33.886719 22.222656 28.910156 17.246094 28.910156 11.109375 C 28.910156 4.976562 33.886719 2.777344 40.023438 2.777344 C 46.160156 2.777344 51.132812 4.976562 51.132812 11.109375 "/>
<path style=" stroke:none;fill-rule:nonzero;fill:rgb(60.392157%,66.666667%,70.588235%);fill-opacity:1;" d="M 33.332031 11.109375 C 38.890625 11.109375 44.445312 8.332031 44.445312 11.109375 C 44.445312 13.890625 44.445312 19.445312 50 19.445312 C 55.554688 19.445312 58.332031 0 41.667969 0 C 25 0 25 11.109375 33.332031 11.109375 "/>
<path style=" stroke:none;fill-rule:nonzero;fill:rgb(74.117647%,86.666667%,95.686275%);fill-opacity:1;" d="M 36.109375 12.5 C 36.109375 14.804688 34.246094 16.667969 31.945312 16.667969 C 29.640625 16.667969 27.777344 14.804688 27.777344 12.5 C 27.777344 10.195312 29.640625 8.332031 31.945312 8.332031 C 34.246094 8.332031 36.109375 10.195312 36.109375 12.5 "/>
<path style=" stroke:none;fill-rule:nonzero;fill:rgb(40.392157%,45.882353%,49.803922%);fill-opacity:1;" d="M 31.945312 9.722656 C 30.414062 9.722656 29.167969 10.96875 29.167969 12.5 C 29.167969 14.03125 30.414062 15.277344 31.945312 15.277344 C 33.476562 15.277344 34.722656 14.03125 34.722656 12.5 C 34.722656 10.96875 33.476562 9.722656 31.945312 9.722656 M 31.945312 18.054688 C 28.878906 18.054688 26.390625 15.5625 26.390625 12.5 C 26.390625 9.4375 28.878906 6.945312 31.945312 6.945312 C 35.007812 6.945312 37.5 9.4375 37.5 12.5 C 37.5 15.5625 35.007812 18.054688 31.945312 18.054688 "/>
<path style=" stroke:none;fill-rule:nonzero;fill:rgb(74.117647%,86.666667%,95.686275%);fill-opacity:1;" d="M 44.445312 12.5 C 44.445312 14.804688 42.582031 16.667969 40.277344 16.667969 C 37.976562 16.667969 36.109375 14.804688 36.109375 12.5 C 36.109375 10.195312 37.976562 8.332031 40.277344 8.332031 C 42.582031 8.332031 44.445312 10.195312 44.445312 12.5 "/>
<path style=" stroke:none;fill-rule:nonzero;fill:rgb(40.392157%,45.882353%,49.803922%);fill-opacity:1;" d="M 40.277344 9.722656 C 38.746094 9.722656 37.5 10.96875 37.5 12.5 C 37.5 14.03125 38.746094 15.277344 40.277344 15.277344 C 41.808594 15.277344 43.054688 14.03125 43.054688 12.5 C 43.054688 10.96875 41.808594 9.722656 40.277344 9.722656 M 40.277344 18.054688 C 37.214844 18.054688 34.722656 15.5625 34.722656 12.5 C 34.722656 9.4375 37.214844 6.945312 40.277344 6.945312 C 43.339844 6.945312 45.832031 9.4375 45.832031 12.5 C 45.832031 15.5625 43.339844 18.054688 40.277344 18.054688 "/>
</g>
</svg>
